<svg width="592" height="28" viewBox="0 0 592 28" fill="none" xmlns="http://www.w3.org/2000/svg">
<rect x="275.5" y="0.5" width="39" height="27" rx="1.5" stroke="#898989"/>
<path d="M291.773 20.1818C290.985 20.1818 290.294 19.9943 289.699 19.6193C289.108 19.2443 288.646 18.7197 288.312 18.0455C287.983 17.3712 287.818 16.5833 287.818 15.6818C287.818 14.7727 287.983 13.9792 288.312 13.3011C288.646 12.6231 289.108 12.0966 289.699 11.7216C290.294 11.3466 290.985 11.1591 291.773 11.1591C292.561 11.1591 293.25 11.3466 293.841 11.7216C294.436 12.0966 294.898 12.6231 295.227 13.3011C295.561 13.9792 295.727 14.7727 295.727 15.6818C295.727 16.5833 295.561 17.3712 295.227 18.0455C294.898 18.7197 294.436 19.2443 293.841 19.6193C293.25 19.9943 292.561 20.1818 291.773 20.1818ZM291.773 18.9773C292.371 18.9773 292.864 18.8239 293.25 18.517C293.636 18.2102 293.922 17.8068 294.108 17.3068C294.294 16.8068 294.386 16.2652 294.386 15.6818C294.386 15.0985 294.294 14.5549 294.108 14.0511C293.922 13.5473 293.636 13.1402 293.25 12.8295C292.864 12.5189 292.371 12.3636 291.773 12.3636C291.174 12.3636 290.682 12.5189 290.295 12.8295C289.909 13.1402 289.623 13.5473 289.438 14.0511C289.252 14.5549 289.159 15.0985 289.159 15.6818C289.159 16.2652 289.252 16.8068 289.438 17.3068C289.623 17.8068 289.909 18.2102 290.295 18.517C290.682 18.8239 291.174 18.9773 291.773 18.9773ZM297.774 20V11.2727H299.07V12.5909H299.161C299.32 12.1591 299.607 11.8087 300.024 11.5398C300.441 11.2708 300.911 11.1364 301.433 11.1364C301.532 11.1364 301.655 11.1383 301.803 11.142C301.95 11.1458 302.062 11.1515 302.138 11.1591V12.5227C302.092 12.5114 301.988 12.4943 301.825 12.4716C301.666 12.4451 301.498 12.4318 301.32 12.4318C300.895 12.4318 300.517 12.5208 300.183 12.6989C299.854 12.8731 299.592 13.1155 299.399 13.4261C299.21 13.733 299.115 14.0833 299.115 14.4773V20H297.774Z" fill="#898989"/>
<line y1="13.5" x2="275" y2="13.5" stroke="#898989"/>
<line x1="315" y1="13.5" x2="592" y2="13.5" stroke="#898989"/>
</svg>
