<svg width="55" height="30" viewBox="0 0 55 30" fill="none" xmlns="http://www.w3.org/2000/svg">
<rect y="0.223877" width="55" height="29.5523" rx="14.7761" fill="black"/>
<path d="M14.7761 18.5821C12.7978 18.5821 11.1941 16.9783 11.1941 15C11.1941 13.0217 12.7978 11.4179 14.7761 11.4179C16.7545 11.4179 18.3582 13.0217 18.3582 15C18.3582 16.9783 16.7545 18.5821 14.7761 18.5821ZM14.1791 8.43283H15.3732V10.2239H14.1791V8.43283ZM14.1791 19.7761H15.3732V21.5672H14.1791V19.7761ZM9.71031 10.7785L10.5546 9.93416L11.8211 11.2006L10.9768 12.0449L9.71031 10.7785ZM17.7312 18.7994L18.5756 17.955L19.842 19.2215L18.9977 20.0658L17.7312 18.7994ZM18.9977 9.93416L19.842 10.7785L18.5756 12.0449L17.7312 11.2006L18.9977 9.93416ZM10.9768 17.955L11.8211 18.7994L10.5546 20.0658L9.71031 19.2215L10.9768 17.955ZM21.3433 14.403V15.597H19.5523V14.403H21.3433ZM10 14.403V15.597H8.20898V14.403H10Z" fill="white"/>
<rect x="29.5518" y="4.32837" width="21.3433" height="21.3433" rx="10.6716" fill="white"/>
<path d="M39.8225 8.43283C38.8596 9.33261 38.2576 10.6139 38.2576 12.0358C38.2576 14.7585 40.4649 16.9658 43.1876 16.9658C44.6095 16.9658 45.8908 16.3639 46.7906 15.4009C46.5804 18.8417 43.7233 21.5672 40.2296 21.5672C36.5992 21.5672 33.6562 18.6242 33.6562 14.9938C33.6562 11.5002 36.3818 8.64307 39.8225 8.43283Z" fill="black"/>
</svg>
