<svg width="67" height="36" viewBox="0 0 67 36" fill="none" xmlns="http://www.w3.org/2000/svg">
<rect width="67" height="36" rx="18" fill="white"/>
<rect x="5" y="5" width="26" height="26" rx="13" fill="black"/>
<path d="M18 22.3636C15.59 22.3636 13.6364 20.41 13.6364 18C13.6364 15.59 15.59 13.6364 18 13.6364C20.41 13.6364 22.3636 15.59 22.3636 18C22.3636 20.41 20.41 22.3636 18 22.3636ZM17.2727 10H18.7273V12.1818H17.2727V10ZM17.2727 23.8182H18.7273V26H17.2727V23.8182ZM11.8289 12.8574L12.8574 11.8289L14.4002 13.3717L13.3717 14.4002L11.8289 12.8574ZM21.5998 22.6284L22.6284 21.5998L24.1711 23.1426L23.1426 24.1711L21.5998 22.6284ZM23.1426 11.8289L24.1711 12.8574L22.6284 14.4002L21.5998 13.3717L23.1426 11.8289ZM13.3717 21.5998L14.4002 22.6284L12.8574 24.1711L11.8289 23.1426L13.3717 21.5998ZM26 17.2727V18.7273H23.8182V17.2727H26ZM12.1818 17.2727V18.7273H10V17.2727H12.1818Z" fill="white"/>
<rect x="36" y="5" width="26" height="26" rx="13" fill="white"/>
<path d="M48.5117 10C47.3386 11.0961 46.6053 12.6569 46.6053 14.3891C46.6053 17.7059 49.2942 20.3947 52.611 20.3947C54.3431 20.3947 55.9039 19.6615 57 18.4884C56.7439 22.6799 53.2635 26 49.0076 26C44.5851 26 41 22.4149 41 17.9925C41 13.7366 44.3202 10.2561 48.5117 10Z" fill="black"/>
</svg>
