<svg width="61" height="60" viewBox="0 0 61 60" fill="none" xmlns="http://www.w3.org/2000/svg">
<path d="M46.5 6C44.3783 6 42.3434 6.84285 40.8431 8.34315C39.3429 9.84344 38.5 11.8783 38.5 14C38.5036 14.5623 38.5664 15.1227 38.6875 15.6719L20.5234 24.7539C19.7743 23.8914 18.8491 23.1994 17.8101 22.7243C16.7711 22.2493 15.6424 22.0023 14.5 22C12.3783 22 10.3434 22.8429 8.84315 24.3431C7.34285 25.8434 6.5 27.8783 6.5 30C6.5 32.1217 7.34285 34.1566 8.84315 35.6569C10.3434 37.1571 12.3783 38 14.5 38C15.6428 37.9987 16.772 37.7526 17.8117 37.2782C18.8514 36.8039 19.7774 36.1123 20.5273 35.25L38.6797 44.3281C38.5612 44.8776 38.501 45.4379 38.5 46C38.5 48.1217 39.3429 50.1566 40.8431 51.6569C42.3434 53.1571 44.3783 54 46.5 54C48.6217 54 50.6566 53.1571 52.1569 51.6569C53.6571 50.1566 54.5 48.1217 54.5 46C54.5 43.8783 53.6571 41.8434 52.1569 40.3431C50.6566 38.8429 48.6217 38 46.5 38C45.3572 38.0013 44.228 38.2474 43.1883 38.7218C42.1486 39.1961 41.2226 39.8877 40.4727 40.75L22.3203 31.6719C22.4388 31.1224 22.499 30.5621 22.5 30C22.4962 29.439 22.4333 28.8799 22.3125 28.332L40.4766 19.25C41.2261 20.1118 42.1514 20.8031 43.1904 21.2774C44.2294 21.7518 45.3579 21.9982 46.5 22C48.6217 22 50.6566 21.1571 52.1569 19.6569C53.6571 18.1566 54.5 16.1217 54.5 14C54.5 11.8783 53.6571 9.84344 52.1569 8.34315C50.6566 6.84285 48.6217 6 46.5 6Z" fill="white"/>
</svg>
