<svg width="61" height="61" viewBox="0 0 61 61" fill="none" xmlns="http://www.w3.org/2000/svg">
<path d="M45.5 48C46.875 48 48.0521 47.5104 49.0312 46.5312C50.0104 45.5521 50.5 44.375 50.5 43C50.5 41.625 50.0104 40.4479 49.0312 39.4688C48.0521 38.4896 46.875 38 45.5 38C44.125 38 42.9479 38.4896 41.9688 39.4688C40.9896 40.4479 40.5 41.625 40.5 43C40.5 44.375 40.9896 45.5521 41.9688 46.5312C42.9479 47.5104 44.125 48 45.5 48ZM45 55.5C44.4167 55.5 43.9062 55.3125 43.4688 54.9375C43.0312 54.5625 42.75 54.0833 42.625 53.5L42.25 51.75C41.75 51.5417 41.2812 51.3229 40.8438 51.0938C40.4062 50.8646 39.9583 50.5833 39.5 50.25L37.6875 50.8125C37.1458 50.9792 36.6146 50.9583 36.0938 50.75C35.5729 50.5417 35.1667 50.2083 34.875 49.75L34.375 48.875C34.0833 48.375 33.9792 47.8333 34.0625 47.25C34.1458 46.6667 34.4167 46.1875 34.875 45.8125L36.25 44.625C36.1667 44.125 36.125 43.5833 36.125 43C36.125 42.4167 36.1667 41.875 36.25 41.375L34.875 40.1875C34.4167 39.8125 34.1458 39.3438 34.0625 38.7812C33.9792 38.2188 34.0833 37.6875 34.375 37.1875L34.9375 36.25C35.2292 35.7917 35.625 35.4583 36.125 35.25C36.625 35.0417 37.1458 35.0208 37.6875 35.1875L39.5 35.75C39.9583 35.4167 40.4062 35.1354 40.8438 34.9062C41.2812 34.6771 41.75 34.4583 42.25 34.25L42.625 32.4375C42.75 31.8542 43.0312 31.3854 43.4688 31.0312C43.9062 30.6771 44.4167 30.5 45 30.5H46C46.5833 30.5 47.0938 30.6875 47.5312 31.0625C47.9688 31.4375 48.25 31.9167 48.375 32.5L48.75 34.25C49.25 34.4583 49.7188 34.6771 50.1562 34.9062C50.5938 35.1354 51.0417 35.4167 51.5 35.75L53.3125 35.1875C53.8542 35.0208 54.3854 35.0417 54.9062 35.25C55.4271 35.4583 55.8333 35.7917 56.125 36.25L56.625 37.125C56.9167 37.625 57.0208 38.1667 56.9375 38.75C56.8542 39.3333 56.5833 39.8125 56.125 40.1875L54.75 41.375C54.8333 41.875 54.875 42.4167 54.875 43C54.875 43.5833 54.8333 44.125 54.75 44.625L56.125 45.8125C56.5833 46.1875 56.8542 46.6562 56.9375 47.2188C57.0208 47.7812 56.9167 48.3125 56.625 48.8125L56.0625 49.75C55.7708 50.2083 55.375 50.5417 54.875 50.75C54.375 50.9583 53.8542 50.9792 53.3125 50.8125L51.5 50.25C51.0417 50.5833 50.5938 50.8646 50.1562 51.0938C49.7188 51.3229 49.25 51.5417 48.75 51.75L48.375 53.5625C48.25 54.1458 47.9688 54.6146 47.5312 54.9688C47.0938 55.3229 46.5833 55.5 46 55.5H45ZM10.5 50.5C9.125 50.5 7.94792 50.0104 6.96875 49.0312C5.98958 48.0521 5.5 46.875 5.5 45.5V15.5C5.5 14.125 5.98958 12.9479 6.96875 11.9688C7.94792 10.9896 9.125 10.5 10.5 10.5H23.4375C24.1042 10.5 24.7396 10.625 25.3438 10.875C25.9479 11.125 26.4792 11.4792 26.9375 11.9375L30.5 15.5H50.5C51.875 15.5 53.0521 15.9896 54.0312 16.9688C55.0104 17.9479 55.5 19.125 55.5 20.5V28.625C54.0417 27.5833 52.4583 26.8021 50.75 26.2812C49.0417 25.7604 47.2917 25.5 45.5 25.5C40.625 25.5 36.4896 27.1979 33.0938 30.5938C29.6979 33.9896 28 38.125 28 43C28 44.3333 28.1354 45.625 28.4062 46.875C28.6771 48.125 29.1042 49.3333 29.6875 50.5H10.5Z" fill="white"/>
</svg>
