<svg width="60" height="61" viewBox="0 0 60 61" fill="none" xmlns="http://www.w3.org/2000/svg">
<path d="M51.966 27.184C51.976 26.956 52 26.732 52 26.5C52 17.664 44.836 10.5 36 10.5C29.78 10.5 24.4 14.058 21.754 19.242C20.592 18.772 19.33 18.5 18 18.5C12.94 18.5 8.802 22.27 8.136 27.148C3.406 28.758 0 33.226 0 38.5C0 45.128 5.372 50.5 12 50.5H48C54.628 50.5 60 45.128 60 38.5C60 33.264 56.642 28.824 51.966 27.184ZM22.586 31.086L28.586 25.086C28.976 24.696 29.488 24.5 30 24.5C30.512 24.5 31.024 24.696 31.414 25.086L37.414 31.086C38.196 31.868 38.196 33.132 37.414 33.914C36.632 34.696 35.368 34.696 34.586 33.914L32 31.328V42.5C32 43.604 31.106 44.5 30 44.5C28.894 44.5 28 43.604 28 42.5V31.328L25.414 33.914C24.632 34.696 23.368 34.696 22.586 33.914C21.804 33.132 21.804 31.868 22.586 31.086Z" fill="white"/>
</svg>
