<svg width="14" height="14" viewBox="0 0 14 14" fill="none" xmlns="http://www.w3.org/2000/svg">
<g id="tiktok-fill">
<path id="Vector" d="M9.10096 5.02886V8.83759C9.10096 10.7223 7.57314 12.2501 5.68842 12.2501C3.80373 12.2501 2.27588 10.7223 2.27588 8.83759C2.27588 6.95287 3.80373 5.42505 5.68842 5.42505C5.95948 5.42505 6.22314 5.45665 6.47593 5.51636V7.17689C6.23726 7.06349 5.97024 7.00006 5.68842 7.00006C4.67358 7.00006 3.8509 7.82275 3.8509 8.83759C3.8509 9.85242 4.67358 10.6751 5.68842 10.6751C6.70326 10.6751 7.52594 9.85242 7.52594 8.83759V1.75H9.10096C9.10096 3.19976 10.2762 4.37503 11.726 4.37503V5.95005C10.7327 5.95005 9.82001 5.60527 9.10096 5.02886Z" fill="white"/>
</g>
</svg>
